<mxfile host="app.diagrams.net" modified="2021-09-30T07:49:36.812Z" agent="5.0 (Windows NT 10.0; Win64; x64) AppleWebKit/537.36 (KHTML, like Gecko) Chrome/80.0.3987.149 Safari/537.36" etag="cFPiFt8DPbzsNu3bHwmJ" version="15.2.9" type="github">
  <diagram id="6gJKiKAxwLefqeDkK7cy" name="Page-1">
    <mxGraphModel dx="1422" dy="794" grid="1" gridSize="10" guides="1" tooltips="1" connect="1" arrows="1" fold="1" page="1" pageScale="1" pageWidth="1169" pageHeight="827" math="0" shadow="0">
      <root>
        <mxCell id="0" />
        <mxCell id="1" parent="0" />
        <mxCell id="WQYjTW14MFptTkXeRwa9-2" value="" style="ellipse;whiteSpace=wrap;html=1;strokeWidth=2;fillWeight=2;hachureGap=8;fillColor=#990000;fillStyle=dots;sketch=1;" vertex="1" parent="1">
          <mxGeometry x="220" y="320" width="120" height="60" as="geometry" />
        </mxCell>
        <mxCell id="WQYjTW14MFptTkXeRwa9-3" value="" style="ellipse;whiteSpace=wrap;html=1;strokeWidth=2;fillWeight=2;hachureGap=8;fillColor=#990000;fillStyle=dots;sketch=1;" vertex="1" parent="1">
          <mxGeometry x="770" y="320" width="120" height="60" as="geometry" />
        </mxCell>
        <mxCell id="WQYjTW14MFptTkXeRwa9-31" value="" style="edgeStyle=orthogonalEdgeStyle;rounded=0;orthogonalLoop=1;jettySize=auto;html=1;" edge="1" parent="1" source="WQYjTW14MFptTkXeRwa9-4" target="WQYjTW14MFptTkXeRwa9-30">
          <mxGeometry relative="1" as="geometry" />
        </mxCell>
        <mxCell id="WQYjTW14MFptTkXeRwa9-4" value="主站" style="text;html=1;resizable=0;autosize=1;align=center;verticalAlign=middle;points=[];fillColor=none;strokeColor=none;rounded=0;" vertex="1" parent="1">
          <mxGeometry x="500" y="240" width="40" height="20" as="geometry" />
        </mxCell>
        <mxCell id="WQYjTW14MFptTkXeRwa9-5" value="blog" style="text;html=1;resizable=0;autosize=1;align=center;verticalAlign=middle;points=[];fillColor=none;strokeColor=none;rounded=0;" vertex="1" parent="1">
          <mxGeometry x="260" y="240" width="40" height="20" as="geometry" />
        </mxCell>
        <mxCell id="WQYjTW14MFptTkXeRwa9-6" value="record" style="text;html=1;resizable=0;autosize=1;align=center;verticalAlign=middle;points=[];fillColor=none;strokeColor=none;rounded=0;" vertex="1" parent="1">
          <mxGeometry x="805" y="240" width="50" height="20" as="geometry" />
        </mxCell>
        <mxCell id="WQYjTW14MFptTkXeRwa9-22" value="" style="edgeStyle=orthogonalEdgeStyle;rounded=0;orthogonalLoop=1;jettySize=auto;html=1;" edge="1" parent="1" source="WQYjTW14MFptTkXeRwa9-20">
          <mxGeometry relative="1" as="geometry">
            <mxPoint x="525" y="490" as="targetPoint" />
          </mxGeometry>
        </mxCell>
        <mxCell id="WQYjTW14MFptTkXeRwa9-20" value="&lt;div&gt;春有百花秋有月，夏有凉风冬有雪。&lt;/div&gt;&lt;div&gt;若无闲事挂心头，便是人间好时节。&lt;/div&gt;" style="rounded=0;whiteSpace=wrap;html=1;" vertex="1" parent="1">
          <mxGeometry x="410" y="320" width="230" height="60" as="geometry" />
        </mxCell>
        <mxCell id="WQYjTW14MFptTkXeRwa9-24" value="" style="edgeStyle=orthogonalEdgeStyle;rounded=0;orthogonalLoop=1;jettySize=auto;html=1;" edge="1" parent="1" source="WQYjTW14MFptTkXeRwa9-21" target="WQYjTW14MFptTkXeRwa9-23">
          <mxGeometry relative="1" as="geometry" />
        </mxCell>
        <mxCell id="WQYjTW14MFptTkXeRwa9-26" value="" style="edgeStyle=orthogonalEdgeStyle;rounded=0;orthogonalLoop=1;jettySize=auto;html=1;" edge="1" parent="1" source="WQYjTW14MFptTkXeRwa9-21" target="WQYjTW14MFptTkXeRwa9-25">
          <mxGeometry relative="1" as="geometry" />
        </mxCell>
        <mxCell id="WQYjTW14MFptTkXeRwa9-27" value="" style="edgeStyle=orthogonalEdgeStyle;rounded=0;orthogonalLoop=1;jettySize=auto;html=1;" edge="1" parent="1" source="WQYjTW14MFptTkXeRwa9-21" target="WQYjTW14MFptTkXeRwa9-23">
          <mxGeometry relative="1" as="geometry" />
        </mxCell>
        <mxCell id="WQYjTW14MFptTkXeRwa9-21" value="夏-太阳" style="ellipse;whiteSpace=wrap;html=1;rounded=0;" vertex="1" parent="1">
          <mxGeometry x="370" y="460" width="120" height="60" as="geometry" />
        </mxCell>
        <mxCell id="WQYjTW14MFptTkXeRwa9-29" value="" style="edgeStyle=orthogonalEdgeStyle;rounded=0;orthogonalLoop=1;jettySize=auto;html=1;" edge="1" parent="1" source="WQYjTW14MFptTkXeRwa9-23" target="WQYjTW14MFptTkXeRwa9-28">
          <mxGeometry relative="1" as="geometry" />
        </mxCell>
        <mxCell id="WQYjTW14MFptTkXeRwa9-23" value="秋-枫叶、月" style="ellipse;whiteSpace=wrap;html=1;rounded=0;" vertex="1" parent="1">
          <mxGeometry x="570" y="460" width="120" height="60" as="geometry" />
        </mxCell>
        <mxCell id="WQYjTW14MFptTkXeRwa9-25" value="春-百花、" style="ellipse;whiteSpace=wrap;html=1;rounded=0;" vertex="1" parent="1">
          <mxGeometry x="170" y="460" width="120" height="60" as="geometry" />
        </mxCell>
        <mxCell id="WQYjTW14MFptTkXeRwa9-28" value="冬-雪花" style="ellipse;whiteSpace=wrap;html=1;rounded=0;" vertex="1" parent="1">
          <mxGeometry x="770" y="460" width="120" height="60" as="geometry" />
        </mxCell>
        <mxCell id="WQYjTW14MFptTkXeRwa9-30" value="魔幻风格" style="whiteSpace=wrap;html=1;" vertex="1" parent="1">
          <mxGeometry x="460" y="120" width="120" height="60" as="geometry" />
        </mxCell>
      </root>
    </mxGraphModel>
  </diagram>
</mxfile>
